<?xml version="1.0" standalone="no"?>
<!DOCTYPE svg PUBLIC "-//W3C//DTD SVG 20010904//EN"
 "http://www.w3.org/TR/2001/REC-SVG-20010904/DTD/svg10.dtd">
<svg version="1.0" xmlns="http://www.w3.org/2000/svg"
 width="1001.000000pt" height="1001.000000pt" viewBox="0 0 1001.000000 1001.000000"
 preserveAspectRatio="xMidYMid meet">
<metadata>
Created by potrace 1.11, written by Peter Selinger 2001-2013
</metadata>
<g transform="translate(0.000000,1001.000000) scale(0.100000,-0.100000)"
fill="#000000" stroke="none">
<path d="M2358 9775 c-2 -2 -35 -7 -73 -10 -39 -3 -77 -8 -86 -11 -9 -2 -34
-6 -55 -9 -60 -6 -197 -34 -289 -58 -35 -10 -163 -50 -180 -57 -11 -4 -40 -16
-65 -25 -25 -10 -82 -35 -128 -57 -46 -21 -87 -38 -93 -38 -5 0 -9 -3 -9 -7 0
-5 -27 -21 -60 -37 -33 -16 -60 -34 -60 -39 0 -6 -3 -7 -6 -4 -4 4 -23 -6 -43
-21 -20 -15 -49 -36 -66 -47 -127 -79 -391 -338 -475 -465 -8 -13 -23 -32 -33
-42 -9 -10 -15 -18 -13 -18 2 0 -20 -37 -50 -82 -30 -46 -54 -88 -54 -94 0 -6
-6 -17 -14 -23 -8 -7 -18 -26 -21 -42 -4 -16 -11 -29 -16 -29 -5 0 -9 -5 -9
-11 0 -10 -22 -61 -61 -145 -10 -22 -19 -45 -19 -52 0 -6 -5 -23 -12 -39 -6
-15 -12 -30 -13 -33 -1 -3 -5 -12 -8 -20 -6 -13 -53 -191 -62 -230 -45 -211
-59 -365 -60 -657 0 -123 -3 -223 -7 -223 -7 0 -5 -27 4 -35 3 -4 2 -20 -2
-36 -5 -18 -5 -29 1 -29 6 0 7 -6 2 -12 -10 -17 -10 -88 0 -88 5 0 5 -5 1 -12
-4 -6 -8 -33 -8 -59 -1 -46 0 -47 26 -44 16 2 28 -1 28 -7 0 -7 5 -7 13 -1 13
10 159 9 175 -1 6 -3 12 -1 14 5 2 7 12 7 30 0 18 -7 29 -7 33 0 4 5 10 7 15
4 11 -7 408 -11 414 -4 3 2 6 162 7 354 3 430 16 582 61 739 6 23 12 43 13 46
22 78 32 109 62 180 20 47 43 93 51 103 8 9 12 17 8 17 -10 0 97 168 144 224
72 87 246 246 268 246 5 0 12 7 16 15 3 8 10 15 17 15 6 0 23 8 37 19 34 23
202 111 202 105 0 -2 13 2 29 10 16 9 31 12 35 9 3 -4 6 -1 6 5 0 7 3 11 8 10
10 -2 62 11 87 22 26 12 131 38 180 45 22 3 54 8 70 12 61 12 95 14 318 18
126 3 233 7 238 10 5 4 9 3 9 -2 0 -9 366 -11 375 -2 7 8 13 727 5 738 -5 8
-844 13 -852 6z"/>
<path d="M6754 9766 c-7 -20 1 -731 8 -736 10 -8 615 -3 627 4 5 4 12 2 16 -3
4 -7 15 -7 30 -1 14 5 25 6 25 2 0 -4 21 -8 48 -8 101 -1 232 -21 392 -58 189
-44 425 -164 579 -294 83 -71 94 -82 165 -167 79 -95 86 -104 86 -111 0 -3 8
-18 19 -32 91 -130 209 -454 215 -589 1 -13 4 -23 8 -23 3 0 4 -9 1 -19 -3
-10 0 -28 6 -39 7 -14 8 -23 1 -27 -6 -4 -7 -12 -3 -18 11 -17 13 -53 17 -415
2 -177 0 -325 -5 -327 -4 -3 -54 -8 -111 -11 -56 -3 -130 -7 -163 -9 -33 -2
-109 -6 -170 -9 -60 -3 -146 -8 -190 -11 -44 -3 -113 -7 -153 -9 -40 -1 -75
-6 -78 -9 -4 -4 -14 -2 -24 3 -10 5 -20 7 -23 3 -3 -3 -34 -7 -69 -9 -76 -4
-257 -14 -353 -20 -38 -2 -115 -6 -170 -9 -55 -2 -134 -6 -175 -9 -41 -3 -113
-8 -160 -11 -76 -5 -134 -8 -345 -20 -77 -4 -274 -16 -345 -20 -148 -9 -320
-18 -362 -19 -27 -1 -48 -4 -48 -8 0 -4 -11 -3 -24 2 -13 5 -27 6 -30 3 -3 -3
-34 -7 -68 -9 -35 -1 -108 -5 -163 -8 -55 -3 -138 -8 -185 -11 -47 -2 -121 -7
-165 -10 -44 -2 -125 -7 -180 -10 -55 -3 -134 -7 -175 -10 -41 -3 -120 -7
-175 -10 -139 -8 -149 -11 -250 -60 -206 -99 -330 -159 -335 -160 -3 0 -50
-22 -105 -49 -55 -26 -129 -61 -165 -78 -36 -17 -72 -35 -80 -39 -8 -5 -22
-12 -30 -15 -8 -4 -74 -35 -146 -69 -73 -35 -141 -66 -153 -70 -12 -3 -21 -11
-21 -16 0 -5 -3 -8 -7 -7 -5 1 -19 -4 -33 -12 -14 -7 -26 -13 -27 -12 -2 1
-67 -29 -146 -67 -79 -37 -162 -76 -185 -86 -23 -11 -42 -22 -42 -25 0 -4 -6
-7 -12 -7 -7 0 -71 -29 -143 -64 -71 -35 -132 -64 -135 -64 -5 -1 -28 -12
-285 -135 -71 -34 -170 -81 -220 -105 -49 -23 -148 -70 -218 -104 -71 -34
-134 -62 -140 -64 -7 -1 -14 -5 -17 -8 -10 -11 -220 -108 -220 -101 0 4 -4 2
-8 -3 -4 -6 -32 -21 -62 -35 -30 -14 -56 -28 -58 -32 -2 -5 -10 -8 -17 -8 -7
0 -35 -11 -62 -25 -64 -32 -352 -170 -422 -201 -31 -14 -63 -29 -71 -35 -8 -5
-22 -12 -30 -16 -8 -3 -71 -33 -140 -66 -69 -33 -131 -60 -137 -60 -7 0 -13
-3 -13 -6 0 -3 -15 -12 -32 -20 -18 -8 -107 -50 -198 -93 -90 -44 -169 -80
-174 -81 -6 -1 -17 -8 -24 -15 -8 -7 -18 -10 -23 -7 -5 4 -9 2 -9 -3 0 -5 -18
-15 -40 -22 -22 -7 -40 -17 -40 -22 0 -5 -4 -6 -10 -3 -5 3 -10 1 -10 -4 0 -6
-3 -10 -7 -9 -5 1 -46 -16 -93 -39 l-85 -41 182 2 c101 0 183 4 183 8 0 4 11
3 25 -2 14 -5 25 -6 25 -2 0 4 66 8 148 8 81 1 264 5 407 8 143 4 346 9 450
11 105 2 282 7 395 10 113 3 300 7 415 10 116 3 287 7 380 10 604 15 740 18
907 19 104 1 188 3 188 6 0 3 60 6 133 7 131 1 484 9 852 18 105 3 280 7 390
9 200 4 226 6 235 17 3 3 37 21 75 41 39 19 156 79 260 133 368 191 451 233
575 296 69 35 128 68 132 74 4 5 8 6 8 1 0 -5 6 -4 13 2 6 5 107 58 222 117
116 59 219 114 230 121 11 8 27 14 36 14 10 0 19 4 21 8 2 4 59 36 128 71 69
35 177 91 240 123 63 33 138 71 165 85 28 14 57 29 65 34 8 4 58 30 110 57
126 65 420 217 600 310 500 258 467 243 475 219 21 -63 33 -113 28 -119 -2 -5
1 -8 8 -8 7 0 10 -2 7 -6 -3 -3 12 -73 34 -157 43 -166 46 -177 53 -208 2 -11
7 -29 10 -39 3 -11 -1 -33 -9 -49 -9 -17 -16 -46 -16 -67 0 -35 36 -114 52
-114 13 0 9 -15 -10 -36 -40 -43 -59 -140 -41 -208 6 -22 13 -52 16 -65 2 -13
8 -31 12 -40 5 -9 7 -24 6 -33 -2 -10 0 -18 4 -18 4 0 8 -6 8 -12 0 -7 10 -51
22 -98 12 -47 23 -92 25 -100 2 -8 23 -87 46 -175 23 -88 43 -168 45 -178 2
-10 7 -27 10 -37 3 -10 7 -27 9 -37 8 -39 78 -309 86 -333 5 -14 11 -36 13
-50 2 -14 7 -32 10 -40 3 -8 8 -26 10 -40 3 -14 8 -35 11 -48 3 -12 8 -30 10
-40 48 -185 61 -229 73 -242 15 -16 114 -20 189 -8 45 8 152 45 172 61 6 5 12
6 12 2 0 -13 64 47 66 63 2 8 -9 58 -23 110 -14 53 -27 106 -29 120 -3 14 -9
33 -15 44 -5 10 -8 18 -5 18 3 0 -2 23 -10 52 -16 51 -19 66 -30 122 -2 16 -7
33 -10 37 -2 4 -27 97 -55 206 -63 246 -67 261 -74 298 -4 17 -8 35 -10 40 -7
25 -9 32 -16 60 -4 17 -13 48 -19 70 -6 22 -12 47 -14 55 -2 8 -23 87 -46 175
-23 88 -43 167 -44 175 -3 25 -32 84 -52 105 -28 31 -80 65 -98 65 -12 0 -15
6 -12 23 20 88 -8 157 -80 195 -14 8 -25 28 -33 64 -20 95 -22 102 -43 178
-28 102 -50 192 -52 210 -1 9 -5 20 -8 25 -3 6 -9 26 -12 46 -3 20 -10 48 -15
62 -10 25 -7 28 32 51 23 13 68 36 100 52 174 87 333 170 338 177 3 5 12 9 20
11 8 1 34 13 59 26 25 13 48 23 53 22 4 -1 7 2 7 7 0 10 27 21 44 20 5 0 12 3
15 8 3 5 44 29 91 53 183 92 375 193 385 201 9 9 -191 3 -205 -6 -3 -2 -12 0
-19 4 -9 6 -13 85 -16 332 -2 178 -7 349 -10 379 -4 30 -8 71 -10 90 -4 44
-15 128 -20 155 -2 11 -6 30 -9 41 -2 12 -7 37 -10 55 -3 19 -10 49 -15 67 -5
18 -10 33 -10 35 2 21 -58 207 -98 307 -53 131 -57 140 -65 140 -5 0 -8 6 -8
14 0 8 -18 46 -40 85 -22 39 -40 75 -40 81 0 5 -4 10 -10 10 -5 0 -10 7 -10
15 0 8 -4 15 -10 15 -5 0 -10 7 -10 15 0 8 -4 15 -8 15 -4 0 -16 15 -27 33
-70 120 -285 352 -420 452 -22 17 -42 32 -45 35 -13 15 -111 80 -119 80 -5 0
-11 4 -13 8 -6 15 -194 118 -288 157 -36 15 -78 33 -95 40 -61 26 -175 64
-175 59 0 -4 -7 -1 -15 6 -8 7 -15 10 -15 6 0 -3 -12 -1 -27 5 -16 6 -37 13
-48 15 -22 4 -53 11 -87 19 -13 3 -36 8 -53 11 -16 3 -41 7 -55 10 -46 9 -55
11 -112 19 -31 4 -74 9 -95 12 -21 3 -235 7 -476 8 -315 2 -440 -1 -443 -9z"/>
<path d="M7385 5360 c-61 -31 -140 -73 -175 -92 -89 -48 -216 -116 -335 -178
-106 -56 -226 -119 -340 -180 -95 -51 -224 -119 -315 -166 -41 -21 -78 -43
-82 -49 -4 -5 -8 -6 -8 -1 0 5 -9 1 -20 -9 -11 -10 -20 -15 -20 -11 0 4 -13
-2 -30 -14 -16 -12 -30 -18 -30 -13 0 4 -4 3 -8 -2 -4 -6 -34 -25 -67 -42 -33
-17 -91 -48 -130 -68 -410 -218 -468 -239 -660 -235 -241 4 -1080 -4 -1080
-11 0 -1 -241 -8 -463 -13 -73 -2 -135 -6 -139 -9 -3 -4 -14 -2 -24 4 -11 5
-19 6 -19 2 0 -4 -46 -9 -103 -9 -250 -4 -398 -11 -407 -20 -32 -32 -42 -591
-15 -796 3 -24 8 -68 11 -98 3 -30 8 -68 10 -85 11 -75 13 -92 19 -115 3 -14
7 -42 10 -62 2 -21 6 -41 8 -45 3 -5 8 -24 11 -43 4 -28 25 -115 60 -245 44
-167 88 -285 106 -285 9 0 20 3 24 8 4 4 11 7 14 8 4 0 14 4 22 7 39 17 235
77 300 93 8 2 42 10 75 18 33 8 76 17 95 20 19 3 44 7 55 10 115 23 296 38
490 39 173 2 319 -8 435 -28 20 -3 52 -7 71 -9 20 -2 40 -5 45 -8 5 -4 25 -7
44 -9 19 -2 41 -7 48 -12 6 -5 12 -7 12 -4 0 14 388 -105 490 -150 58 -26 314
-152 335 -165 11 -7 50 -32 86 -55 l67 -41 43 66 c24 37 47 70 52 73 5 3 8 10
8 15 0 12 173 242 236 314 72 82 249 258 323 320 36 30 67 57 70 60 12 12 97
77 120 92 14 9 35 25 47 37 13 12 26 22 30 22 5 1 27 14 50 30 23 16 46 29 51
29 6 0 13 7 16 16 3 8 10 13 15 10 5 -4 11 -2 13 2 3 8 64 44 153 91 28 14 53
29 56 34 3 5 8 8 10 7 2 -1 42 16 89 38 164 76 448 181 502 185 10 1 18 4 18
7 0 3 12 7 26 8 14 1 49 9 77 17 29 8 68 17 87 20 56 9 83 14 110 21 14 3 33
6 43 7 20 2 21 7 12 67 -4 25 -9 56 -11 70 -1 14 -8 50 -14 80 -6 30 -14 69
-16 85 -3 17 -9 41 -14 55 -5 14 -11 39 -13 55 -5 33 -25 112 -34 135 -3 8 -7
20 -7 25 -11 79 -169 513 -231 636 -14 27 -22 49 -18 49 5 0 4 4 -2 8 -9 6
-38 63 -45 87 -2 6 -13 26 -25 45 -11 19 -36 64 -54 100 -19 36 -38 68 -43 71
-5 3 -9 9 -8 13 2 10 -70 126 -78 125 -4 0 -57 -27 -117 -59z"/>
<path d="M367 3194 c-4 -4 -40 -8 -79 -8 l-72 -1 -1 -67 c0 -38 4 -68 10 -68
5 0 5 -4 -1 -10 -10 -10 -9 -131 1 -157 2 -7 0 -13 -6 -13 -6 0 -6 -6 0 -19 6
-10 7 -21 4 -25 -4 -3 -5 -32 -4 -64 1 -31 4 -129 6 -217 6 -233 15 -320 45
-475 18 -90 22 -108 39 -170 27 -102 41 -149 56 -190 43 -113 78 -196 87 -207
6 -7 7 -13 3 -13 -5 0 0 -9 10 -20 10 -11 15 -20 12 -20 -3 0 12 -33 35 -72
23 -40 46 -82 52 -93 6 -11 13 -22 16 -25 3 -3 19 -26 35 -52 17 -27 33 -48
38 -48 4 0 7 -5 7 -11 0 -27 199 -247 331 -365 53 -48 182 -141 267 -193 104
-63 239 -131 246 -124 3 4 6 1 6 -5 0 -7 5 -12 11 -12 6 0 27 -7 47 -16 63
-27 75 -32 152 -58 63 -21 134 -42 175 -52 46 -11 112 -25 170 -38 11 -2 40
-7 65 -10 25 -3 56 -8 70 -11 90 -15 214 -20 590 -20 l425 0 -2 369 c-2 203
-5 372 -9 375 -10 10 -464 7 -464 -3 0 -6 -5 -5 -11 1 -8 8 -20 8 -34 3 -13
-5 -25 -7 -27 -5 -2 3 -76 7 -164 10 -156 5 -172 6 -244 20 -19 3 -47 8 -62
10 -30 4 -157 36 -230 59 -27 8 -48 12 -48 8 0 -4 -4 -1 -9 6 -4 7 -14 15 -22
16 -38 8 -184 79 -211 104 -10 8 -18 12 -18 7 0 -4 -15 4 -34 19 -19 14 -37
26 -40 26 -3 0 -14 8 -24 18 -10 9 -33 28 -52 42 -100 73 -244 241 -323 378
-41 71 -117 243 -117 266 0 8 -4 17 -9 20 -4 3 -12 25 -16 48 -5 24 -9 45 -10
48 -5 14 -16 58 -19 80 -3 14 -5 25 -6 25 -3 0 -9 39 -16 95 -3 30 -8 69 -11
85 -3 17 -7 206 -10 420 -3 215 -7 392 -9 394 -6 6 -300 4 -310 -1 -5 -3 -18
-3 -29 -1 -11 2 -31 4 -45 3 -112 -5 -200 -4 -203 3 -1 5 -6 5 -10 1z"/>
<path d="M9017 3191 c-19 -6 -27 -24 -17 -40 5 -9 4 -23 -1 -33 -7 -12 -6 -18
1 -18 6 0 8 -5 4 -12 -4 -6 -9 -152 -10 -322 -1 -171 -5 -333 -8 -361 -13
-120 -19 -161 -23 -180 -2 -11 -6 -31 -9 -45 -15 -73 -48 -191 -69 -241 -13
-32 -20 -60 -17 -63 3 -3 -1 -6 -8 -6 -7 0 -11 -3 -7 -6 5 -5 -41 -101 -88
-179 -40 -70 -51 -85 -57 -85 -5 0 -8 -5 -8 -11 0 -6 -6 -16 -12 -24 -7 -7
-29 -32 -48 -55 -81 -97 -165 -173 -258 -235 -23 -15 -42 -32 -42 -38 0 -6 -3
-7 -6 -4 -4 4 -19 -2 -33 -12 -56 -39 -259 -127 -351 -152 -25 -7 -49 -14 -55
-15 -107 -30 -280 -56 -401 -59 -51 -1 -96 -5 -101 -8 -6 -4 -13 -4 -16 0 -6
5 -107 8 -132 3 -5 -1 -12 -2 -15 -1 -3 1 -108 3 -233 4 -197 2 -230 1 -236
-13 -4 -8 -7 -177 -6 -375 l0 -360 425 0 c234 0 452 4 485 8 113 16 130 18
165 22 19 2 48 7 65 11 16 4 39 8 50 10 27 4 55 10 99 22 20 6 36 8 36 6 0 -3
8 0 18 5 11 6 32 13 48 16 40 8 42 9 119 38 17 7 32 12 35 13 8 1 43 15 79 31
18 8 39 16 45 17 41 8 272 136 387 215 143 99 295 237 392 354 18 22 44 53 59
70 15 18 28 35 28 38 0 3 9 17 21 30 11 13 42 58 67 99 25 41 51 78 57 82 5 4
7 8 3 8 -4 0 5 21 20 47 76 131 159 343 198 508 11 45 13 50 14 50 1 0 3 9 5
20 5 28 18 87 22 105 2 8 6 31 8 50 3 19 8 51 11 70 3 19 7 58 10 85 2 28 7
68 10 90 2 22 7 217 9 434 4 358 3 392 -11 387 -9 -4 -23 -1 -30 5 -8 6 -14 7
-14 2 0 -4 -31 -8 -70 -8 -38 0 -70 4 -70 8 0 5 -5 5 -10 2 -11 -7 -74 -7
-353 -3 -86 2 -163 1 -170 -1z"/>
</g>
</svg>
