<svg id="Layer_1" data-name="Layer 1" xmlns="http://www.w3.org/2000/svg" xmlns:xlink="http://www.w3.org/1999/xlink" viewBox="0 0 901.98 850.8"><defs><style>.cls-1,.cls-3{fill:none;}.cls-2{clip-path:url(#clip-path);}.cls-3{stroke:#fff;stroke-miterlimit:10;stroke-width:37.54px;}.cls-4{fill:#fff;}.cls-5{fill:#8e18c9;}.cls-6{fill:#fff1cc;}.cls-7{fill:#7318a1;}.cls-8{fill:#bdc8c9;}.cls-9{fill:#c59cdb;}.cls-10{fill:#e0bc89;}.cls-11{fill:#f0d7b4;}.cls-12{fill:#f2d1a2;}.cls-13{fill:gray;}.cls-14{fill:#666;}.cls-15{fill:#4d4d4d;}.cls-16{fill:#2b2b2b;}.cls-17{fill:#a553cf;}.cls-18{fill:#e3a736;}</style><clipPath id="clip-path" transform="translate(-0.02 -170.22)"><rect class="cls-1" y="499" width="500.5" height="500.5"/></clipPath></defs><title>iAttend-Home-Design</title><g class="cls-2"><g class="cls-2"><path class="cls-3" d="M160.66,529.78l-30.78-.25c-60.31-.25-100.35,38.79-100.1,99.6l-.25,29.53" transform="translate(-0.02 -170.22)"/><path class="cls-3" d="M337.84,529.78l30.78-.25c60.31-.25,100.35,38.79,100.1,99.6l.25,29.53" transform="translate(-0.02 -170.22)"/><path class="cls-3" d="M160.66,969.22l-30.78.25c-60.31.25-100.35-38.79-100.1-99.6l-.25-29" transform="translate(-0.02 -170.22)"/><path class="cls-3" d="M337.84,969.22l30.78.25c60.31.25,100.35-38.79,100.1-99.6l.25-29" transform="translate(-0.02 -170.22)"/><path class="cls-4" d="M343,838.39a158.9,158.9,0,0,1,63.56-24.14,218.22,218.22,0,0,0-31-85.47c-51.87,27.49-89.75,47.41-97.76,51.68a38.57,38.57,0,0,1-10,3.76,39.17,39.17,0,0,1-12.53.78c-8.31-.73-46.38.19-109.14,2.44A196.56,196.56,0,0,0,157,876.87a147.9,147.9,0,0,1,136.3,13.66A159,159,0,0,1,343,838.39" transform="translate(-0.02 -170.22)"/><polyline class="cls-5" points="264.58 603.33 0 609.75 237.36 496.89 500.9 481.65 265.15 603.19"/><rect class="cls-5" x="436.69" y="678.07" width="8.81" height="37.01" transform="translate(-158.82 -39.24) rotate(-14.34)"/><path class="cls-5" d="M454.82,718.23a7.64,7.64,0,1,0-5.51,9.3,7.64,7.64,0,0,0,5.51-9.3" transform="translate(-0.02 -170.22)"/><path class="cls-5" d="M462.59,732a11.75,11.75,0,1,0-8.47,14.3,11.76,11.76,0,0,0,8.47-14.3" transform="translate(-0.02 -170.22)"/><rect class="cls-5" x="449.57" y="733.65" width="23.5" height="81.67" transform="translate(-177.53 -31.77) rotate(-14.35)"/><path class="cls-5" d="M482.82,811.13c.48,1.89-4.22,4.72-10.51,6.33s-11.77,1.38-12.26-.5,4.23-4.72,10.52-6.33,11.77-1.38,12.25.5" transform="translate(-0.02 -170.22)"/></g></g><rect class="cls-6" x="9.98" y="18.78" width="240" height="240" rx="16.05"/><path class="cls-5" d="M10,205a16,16,0,0,1,16-16H234a16,16,0,0,1,16,16v35.26H10Z" transform="translate(-0.02 -170.22)"/><path class="cls-7" d="M192,189c-.27,0-.1-.09.26-.23a5.2,5.2,0,0,1-2.73-1.35,7.05,7.05,0,0,1-1-1.21l-.22-.35a10.27,10.27,0,0,1-.82-2,6.73,6.73,0,0,1-.27-2.14,5.62,5.62,0,0,1,1.46-3.71c-.1-.18-.2-.36-.29-.54a5,5,0,0,1-.68-2.53l.18-1.33,0-.13a1.84,1.84,0,0,1-.21-1.36,8.3,8.3,0,0,0-1.4.09,1.66,1.66,0,0,1-1.88-.91,3.93,3.93,0,0,0-1.45,3v29.46a4,4,0,0,0,4,3.95h8.92a4,4,0,0,0,4-4L200,189C198.81,189,193,189,192,189Z" transform="translate(-0.02 -170.22)"/><path class="cls-7" d="M84,189c-.86,0-6-1.11-6-2,0-.05,2.31,0,4.57,0a6.26,6.26,0,0,1-1-1.11c-1.9-2.67-1.83-6.61-1.42-9.74a7.35,7.35,0,0,1,.57-2.06,1.59,1.59,0,0,1-.86-1.9,8.17,8.17,0,0,0-1.4.09,1.65,1.65,0,0,1-1.88-.91,3.94,3.94,0,0,0-1.46,3v29.46a4,4,0,0,0,4,3.95H88a4,4,0,0,0,4-4L92,189C90.81,189,85,189,84,189Z" transform="translate(-0.02 -170.22)"/><rect class="cls-8" x="67.6" width="16.87" height="37.56" rx="3.99"/><rect class="cls-8" x="175.82" width="16.87" height="37.56" rx="3.99"/><rect class="cls-8" x="32.27" y="85.94" width="31.83" height="31.51" rx="3.99"/><rect class="cls-8" x="32.27" y="127.32" width="31.83" height="31.51" rx="3.99"/><rect class="cls-9" x="73.64" y="85.94" width="31.83" height="31.51" rx="3.99"/><rect class="cls-8" x="73.64" y="127.32" width="31.83" height="31.51" rx="3.99"/><rect class="cls-8" x="115.02" y="85.94" width="31.83" height="31.51" rx="3.99"/><rect class="cls-8" x="115.02" y="127.32" width="31.83" height="31.51" rx="3.99"/><rect class="cls-8" x="195.87" y="85.94" width="31.83" height="31.51" rx="3.99"/><rect class="cls-8" x="195.87" y="127.32" width="31.83" height="31.51" rx="3.99"/><rect class="cls-9" x="154.49" y="127.32" width="31.83" height="31.51" rx="3.99"/><rect class="cls-8" x="32.27" y="168.7" width="31.83" height="31.51" rx="3.99"/><rect class="cls-8" x="73.64" y="168.7" width="31.83" height="31.51" rx="3.99"/><rect class="cls-8" x="115.02" y="168.7" width="31.83" height="31.51" rx="3.99"/><rect class="cls-9" x="195.87" y="168.7" width="31.83" height="31.51" rx="3.99"/><rect class="cls-8" x="154.49" y="168.7" width="31.83" height="31.51" rx="3.99"/><rect class="cls-9" x="32.27" y="210.08" width="31.83" height="31.51" rx="3.99"/><rect class="cls-8" x="73.64" y="210.08" width="31.83" height="31.51" rx="3.99"/><rect class="cls-9" x="115.02" y="210.08" width="31.83" height="31.51" rx="3.99"/><rect class="cls-8" x="195.87" y="210.08" width="31.83" height="31.51" rx="3.99"/><rect class="cls-8" x="154.49" y="210.08" width="31.83" height="31.51" rx="3.99"/><rect class="cls-8" x="154.49" y="85.94" width="31.83" height="31.51" rx="3.99"/><path class="cls-10" d="M795.91,1017.14c6.56,2.86,33.5,5.45,48.63,2.72,17.73-3.18,25.61-11.9,33.64-21.36,9.68-11.41,17.17-25,20-32.72-13.84-15.65-36.65-20.91-55.91-16.82,0,0-30.19-8.24-40,42.27-.2,1,0,13.69-.46,16.36C800.91,1013.5,792.28,1015.77,795.91,1017.14Z" transform="translate(-0.02 -170.22)"/><circle class="cls-11" cx="831.35" cy="732.38" r="39.09"/><path class="cls-12" d="M761.22,816.64l88.27,51a22.75,22.75,0,0,1,8.33,31.07h0A22.74,22.74,0,0,1,826.75,907l-88.28-51A22.74,22.74,0,0,1,730.15,825h0A22.75,22.75,0,0,1,761.22,816.64Z" transform="translate(-0.02 -170.22)"/><path class="cls-10" d="M767.61,836.43l64.55,37.27a4.77,4.77,0,0,1,1.75,6.52h0a4.77,4.77,0,0,1-6.52,1.74l-64.55-37.27a4.75,4.75,0,0,1-1.75-6.51h0A4.77,4.77,0,0,1,767.61,836.43Z" transform="translate(-0.02 -170.22)"/><circle class="cls-10" cx="806.35" cy="807.38" r="40.91"/><path class="cls-10" d="M618.62,809.36l66.71,38.34a22.84,22.84,0,0,1,8.42,31.17h0a22.82,22.82,0,0,1-31.16,8.41l-66.72-38.34a22.82,22.82,0,0,1-8.41-31.16h0A22.82,22.82,0,0,1,618.62,809.36Z" transform="translate(-0.02 -170.22)"/><path class="cls-10" d="M618.12,859.32l66.41,38.34a22.75,22.75,0,0,1,8.33,31.07h0a22.75,22.75,0,0,1-31.07,8.33l-66.41-38.34a22.75,22.75,0,0,1-8.33-31.07h0A22.75,22.75,0,0,1,618.12,859.32Z" transform="translate(-0.02 -170.22)"/><path class="cls-10" d="M791.93,1015.83,604.74,950.65a22.73,22.73,0,0,1-14-28.93v0h0a22.73,22.73,0,0,1,28.92-14l0,0,187.19,65.18a22.73,22.73,0,0,1,14,28.91l0,.05h0a22.73,22.73,0,0,1-28.92,14Z" transform="translate(-0.02 -170.22)"/><polygon class="cls-10" points="812.53 692.19 812.53 676.09 806.29 672.49 804.47 688.75 812.53 692.19"/><rect class="cls-13" x="612.55" y="479.14" width="193.62" height="341.33" rx="21.36"/><rect class="cls-14" x="664.82" y="497.77" width="89.08" height="9.09" rx="3.07"/><circle class="cls-14" cx="642.73" cy="502.4" r="6.36"/><circle class="cls-15" cx="642.73" cy="502.4" r="3.64"/><rect class="cls-14" x="664.82" y="791.38" width="89.08" height="9.09" rx="3.07"/><rect class="cls-8" x="627.55" y="519.59" width="163.62" height="260.88" rx="9.52"/><path class="cls-12" d="M752.72,838.76l85.1,49.13A22.75,22.75,0,0,1,846.15,919h0a22.75,22.75,0,0,1-31.07,8.33L730,878.16a22.76,22.76,0,0,1-8.33-31.08h0A22.74,22.74,0,0,1,752.72,838.76Z" transform="translate(-0.02 -170.22)"/><ellipse class="cls-12" cx="822.97" cy="936.67" rx="47.95" ry="52.72" transform="translate(-231.46 100.98) rotate(-16.44)"/><path class="cls-12" d="M901.36,952.14A69.75,69.75,0,0,0,886.81,899c-12.27-15.33-29-27.61-35.9-30.46-13.94,37.73-39.69,73.18-53.63,110.9,18.44,16,60.8,16,79.53,6.37C899.08,974.28,899.88,963.42,901.36,952.14Z" transform="translate(-0.02 -170.22)"/><rect class="cls-16" x="660.27" y="570.04" width="5" height="75.9" rx="0.98"/><rect class="cls-16" x="670.72" y="570.04" width="5" height="69.08" rx="0.98"/><rect class="cls-16" x="681.18" y="570.04" width="5" height="69.08" rx="0.98"/><rect class="cls-16" x="691.63" y="570.04" width="5" height="69.08" rx="0.98"/><rect class="cls-16" x="701.63" y="570.04" width="5" height="69.08" rx="0.98"/><rect class="cls-16" x="712.08" y="570.04" width="5" height="69.08" rx="0.98"/><rect class="cls-16" x="722.54" y="570.04" width="5" height="75.9" rx="0.98"/><rect class="cls-16" x="732.99" y="570.04" width="5" height="69.08" rx="0.98"/><rect class="cls-16" x="743.44" y="570.04" width="5" height="68.63" rx="0.98"/><rect class="cls-16" x="753.9" y="570.04" width="5" height="75.9" rx="0.98"/><rect class="cls-16" x="732.99" y="640.94" width="5" height="5" rx="0.98"/><rect class="cls-16" x="743.44" y="640.94" width="5" height="5" rx="0.98"/><rect class="cls-16" x="712.08" y="640.94" width="5" height="5" rx="0.98"/><rect class="cls-16" x="701.63" y="640.94" width="5" height="5" rx="0.98"/><rect class="cls-16" x="691.18" y="640.94" width="5" height="5" rx="0.98"/><rect class="cls-16" x="680.72" y="640.94" width="5" height="5" rx="0.98"/><rect class="cls-16" x="670.27" y="640.94" width="5" height="5" rx="0.98"/><rect class="cls-17" x="638" y="590.95" width="142.71" height="4.09" rx="1.17"/><rect class="cls-18" x="348.98" y="13.78" width="168" height="265" rx="18.48"/><rect class="cls-6" x="364.98" y="57.78" width="136" height="204" rx="12.65"/></svg>