<svg id="Layer_1" data-name="Layer 1" xmlns="http://www.w3.org/2000/svg" viewBox="0 0 699.66 817.53"><defs><style>.cls-1{fill:#e6cdaa;}.cls-2{fill:#f0d7b4;}.cls-3{fill:gray;}.cls-4{fill:#666;}.cls-5{fill:#4d4d4d;}.cls-6{fill:#b3b3b3;}.cls-7{fill:#2b2b2b;}.cls-8{fill:#a553cf;}</style></defs><title>iAttend-Home-Design-Phone</title><path class="cls-1" d="M702,946c14.43,6.3,73.71,12,107,6,39-7,56.34-26.19,74-47,21.31-25.11,37.78-55.13,44-72-30.43-34.42-80.62-46-123-37,0,0-66.42-18.13-88,93-.44,2.27-.1,30.12-1,36C713,938,694,943,702,946Z" transform="translate(-235.75 -137)"/><circle class="cls-2" cx="544.25" cy="557" r="86"/><rect class="cls-2" x="535.57" y="554.23" width="324.37" height="100.09" rx="50.05" transform="translate(159.87 -404.92) rotate(30)"/><rect class="cls-1" x="613" y="588" width="185" height="21" rx="10.5" transform="translate(158.01 -409.57) rotate(30)"/><circle class="cls-1" cx="489.25" cy="722" r="90"/><rect class="cls-1" x="224.46" y="522.25" width="268.82" height="100.09" rx="50.05" transform="matrix(0.87, 0.5, -0.5, 0.87, 98.47, -239.76)"/><rect class="cls-1" x="224.46" y="634.25" width="268.82" height="100.09" rx="50.05" transform="translate(154.47 -224.76) rotate(30)"/><path class="cls-1" d="M693.23,943.13,281.38,799.71A50,50,0,0,1,250.58,736h0a50,50,0,0,1,63.72-30.81L726.15,848.61A50,50,0,0,1,757,912.33h0A50,50,0,0,1,693.23,943.13Z" transform="translate(-235.75 -137)"/><polygon class="cls-1" points="502.98 468.56 502.98 433.15 489.25 425.22 485.25 461 502.98 468.56"/><rect class="cls-3" x="63.25" width="426" height="751" rx="47"/><rect class="cls-4" x="178.25" y="41" width="196" height="20" rx="6.76"/><circle class="cls-4" cx="129.25" cy="51" r="14"/><circle class="cls-5" cx="129.25" cy="51" r="8"/><rect class="cls-4" x="178.25" y="687" width="196" height="20" rx="6.76"/><rect class="cls-6" x="96.25" y="89" width="360" height="574" rx="20.95"/><rect class="cls-2" x="517.42" y="600.88" width="316.3" height="100.09" rx="50.05" transform="translate(180.22 -387.58) rotate(30)"/><ellipse class="cls-2" cx="761.5" cy="769" rx="105.5" ry="116" transform="translate(-422.23 109.9) rotate(-16.44)"/><path class="cls-2" d="M934,803c8-61-20-102-32-117-27-33.72-63.85-60.73-79-67-30.67,83-87.33,161-118,244,40.59,35.11,133.79,35.27,175,14C929,851.71,930.75,827.81,934,803Z" transform="translate(-235.75 -137)"/><rect class="cls-7" x="167.38" y="199.69" width="11.46" height="167.31" rx="2.15"/><rect class="cls-7" x="190.3" y="199.69" width="11.46" height="151.73" rx="2.15"/><rect class="cls-7" x="213.22" y="199.69" width="11.46" height="151.73" rx="2.15"/><rect class="cls-7" x="236.14" y="199.69" width="11.46" height="151.73" rx="2.15"/><rect class="cls-7" x="259.06" y="199.69" width="11.46" height="151.73" rx="2.15"/><rect class="cls-7" x="281.98" y="199.69" width="11.46" height="151.73" rx="2.15"/><rect class="cls-7" x="304.9" y="199.69" width="11.46" height="167.31" rx="2.15"/><rect class="cls-7" x="327.82" y="199.69" width="11.46" height="151.73" rx="2.15"/><rect class="cls-7" x="350.73" y="199.69" width="11.46" height="151.27" rx="2.15"/><rect class="cls-7" x="373.65" y="199.69" width="11.46" height="167.31" rx="2.15"/><rect class="cls-7" x="327.46" y="355.54" width="11.46" height="11.15" rx="2.15"/><rect class="cls-7" x="350.38" y="355.54" width="11.46" height="11.15" rx="2.15"/><rect class="cls-7" x="281.62" y="355.54" width="11.46" height="11.15" rx="2.15"/><rect class="cls-7" x="258.7" y="355.54" width="11.46" height="11.15" rx="2.15"/><rect class="cls-7" x="235.78" y="355.54" width="11.46" height="11.15" rx="2.15"/><rect class="cls-7" x="212.86" y="355.54" width="11.46" height="11.15" rx="2.15"/><rect class="cls-7" x="189.94" y="355.54" width="11.46" height="11.15" rx="2.15"/><rect class="cls-8" x="119.25" y="245.53" width="314" height="9.17" rx="2.58"/></svg>