<svg id="Layer_1" data-name="Layer 1" xmlns="http://www.w3.org/2000/svg" viewBox="0 0 754 813"><defs><style>.cls-1{fill:#f5f0ec;}.cls-2{fill:#a553cf;}.cls-3{fill:#9051b0;}.cls-4{fill:#bdc8c9;}.cls-5{fill:#c59cdb;}</style></defs><title>iAttend-Home-Design-Calendar</title><rect class="cls-1" y="59" width="754" height="754" rx="50.42"/><path class="cls-2" d="M50.22,59H703.78A50.22,50.22,0,0,1,754,109.22V220a0,0,0,0,1,0,0H0a0,0,0,0,1,0,0V109.22A50.22,50.22,0,0,1,50.22,59Z"/><path class="cls-3" d="M708,135c-2.71,0-5.34-3-5.34-5.82a4.55,4.55,0,0,1,.12-1,3.68,3.68,0,0,1-3.2-2.16c-4.77.52-7.54-7-2.83-9.36.54-.27,1.07-.55,1.59-.83a4.62,4.62,0,0,1-1.61-5.09,19,19,0,0,1,4.63-7.19c-.27,0-.53,0-.8,0-5.37-.52-6.35-6.51-2.48-9.18-1.49-1.93-1.67-5,.33-6.67l.44-.36a12.4,12.4,0,0,1-6.18-.26,18,18,0,0,1-8.37.67c-2.87-.5-4.06-3.64-3.42-6.2a23.23,23.23,0,0,0-4.41.26,5.15,5.15,0,0,1-5.91-2.88A12.48,12.48,0,0,0,666,88.52v93A12.53,12.53,0,0,0,678.52,194h28A12.53,12.53,0,0,0,719,181.48V135C715.25,135.07,711,135,708,135Z" transform="translate(-135 -76)"/><path class="cls-3" d="M369,135c-2.71,0-5.34-3-5.34-5.82a4.55,4.55,0,0,1,.12-1,3.68,3.68,0,0,1-3.2-2.16c-4.77.52-7.54-7-2.83-9.36.54-.27,1.07-.55,1.59-.83a4.62,4.62,0,0,1-1.61-5.09,19,19,0,0,1,4.63-7.19c-.27,0-.53,0-.8,0-5.37-.52-6.35-6.51-2.48-9.18-1.49-1.93-1.67-5,.33-6.67l.44-.36a12.4,12.4,0,0,1-6.18-.26,18,18,0,0,1-8.37.67c-2.87-.5-4.06-3.64-3.42-6.2a23.23,23.23,0,0,0-4.41.26,5.15,5.15,0,0,1-5.91-2.88A12.48,12.48,0,0,0,327,88.52v93A12.53,12.53,0,0,0,339.52,194h28A12.53,12.53,0,0,0,380,181.48V135C376.25,135.07,372,135,369,135Z" transform="translate(-135 -76)"/><rect class="cls-4" x="181" width="53" height="118" rx="12.52"/><rect class="cls-4" x="521" width="53" height="118" rx="12.52"/><rect class="cls-4" x="70.49" y="270" width="99.66" height="98.63" rx="12.52"/><rect class="cls-4" x="70.49" y="400" width="99.66" height="98.63" rx="12.52"/><rect class="cls-5" x="200.49" y="270" width="99.66" height="98.63" rx="12.52"/><rect class="cls-4" x="200.49" y="400" width="99.66" height="98.63" rx="12.52"/><rect class="cls-4" x="330.49" y="270" width="99.66" height="98.63" rx="12.52"/><rect class="cls-4" x="330.49" y="400" width="99.66" height="98.63" rx="12.52"/><rect class="cls-4" x="584.7" y="269.98" width="99.66" height="98.63" rx="12.52"/><rect class="cls-4" x="584.7" y="399.98" width="99.66" height="98.63" rx="12.52"/><rect class="cls-5" x="454.7" y="399.98" width="99.66" height="98.63" rx="12.52"/><rect class="cls-4" x="70.49" y="530" width="99.66" height="98.63" rx="12.52"/><rect class="cls-4" x="200.49" y="530" width="99.66" height="98.63" rx="12.52"/><rect class="cls-4" x="330.49" y="530" width="99.66" height="98.63" rx="12.52"/><rect class="cls-5" x="584.7" y="529.98" width="99.66" height="98.63" rx="12.52"/><rect class="cls-4" x="454.7" y="529.98" width="99.66" height="98.63" rx="12.52"/><rect class="cls-5" x="70.49" y="660" width="99.66" height="98.63" rx="12.52"/><rect class="cls-4" x="200.49" y="660" width="99.66" height="98.63" rx="12.52"/><rect class="cls-5" x="330.49" y="660" width="99.66" height="98.63" rx="12.52"/><rect class="cls-4" x="584.7" y="659.98" width="99.66" height="98.63" rx="12.52"/><rect class="cls-4" x="454.7" y="659.98" width="99.66" height="98.63" rx="12.52"/><rect class="cls-4" x="454.7" y="269.98" width="99.66" height="98.63" rx="12.52"/></svg>