<svg id="Layer_1" data-name="Layer 1" xmlns="http://www.w3.org/2000/svg" viewBox="0 0 1000.8 954"><defs><style>.cls-1{fill:none;stroke:#fff;stroke-miterlimit:10;stroke-width:75px;}.cls-2{fill:#fff;}.cls-3{fill:#8e18c9;}</style></defs><title>iAttend-Logo-White</title><path class="cls-1" d="M321,61l-61.5-.5C139,60,59,138,59.5,259.5L59,318" transform="translate(0.22 -23)"/><path class="cls-1" d="M675,61l61.5-.5C857,60,937,138,936.5,259.5L937,318" transform="translate(0.22 -23)"/><path class="cls-1" d="M321,939l-61.5.5C139,940,59,862,59.5,740.5L59,682" transform="translate(0.22 -23)"/><path class="cls-1" d="M675,939l61.5.5c120.5.5,200.5-77.5,200-199L937,682" transform="translate(0.22 -23)"/><path class="cls-2" d="M685.13,677.67a317.19,317.19,0,0,1,127-48.23,436.37,436.37,0,0,0-61.85-170.78C646.66,513.58,571,553.39,555,561.92A77.8,77.8,0,0,1,510,571c-16.59-1.45-92.66.38-218.06,4.88a392.49,392.49,0,0,0,21.46,178.68,295.53,295.53,0,0,1,272.33,27.29A317.56,317.56,0,0,1,685.13,677.67Z" transform="translate(0.22 -23)"/><polyline class="cls-3" points="528.64 525.12 0 537.94 474.25 312.45 1000.8 281.99 529.77 524.83"/><rect class="cls-3" x="872.24" y="357.34" width="17.61" height="73.95" transform="translate(-70 207.6) rotate(-14.35)"/><circle class="cls-3" cx="893.91" cy="418.37" r="15.26"/><circle class="cls-3" cx="901.47" cy="447.94" r="23.48"/><rect class="cls-3" x="897.99" y="468.4" width="46.95" height="163.17" transform="translate(-107.31 222.46) rotate(-14.35)"/><ellipse class="cls-3" cx="941.68" cy="629.02" rx="23.48" ry="7.04" transform="translate(-126.27 229.94) rotate(-14.35)"/></svg>