<?xml version="1.0" encoding="utf-8"?>
<!-- Generator: Adobe Illustrator 23.1.0, SVG Export Plug-In . SVG Version: 6.00 Build 0)  -->
<svg version="1.1" id="Layer_1" xmlns="http://www.w3.org/2000/svg" xmlns:xlink="http://www.w3.org/1999/xlink" x="0px" y="0px"
	 viewBox="0 0 1000 1000" style="enable-background:new 0 0 1000 1000;" xml:space="preserve">
<style type="text/css">
	.st0{fill:none;stroke:#000000;stroke-width:75;stroke-miterlimit:10;}
	.st1{fill:#8E18C9;}
</style>
<path class="st0" d="M321,61l-61.5-0.5C139,60,59,138,59.5,259.5L59,318"/>
<path class="st0" d="M675,61l61.5-0.5C857,60,937,138,936.5,259.5L937,318"/>
<path class="st0" d="M321,939l-61.5,0.5C139,940,59,862,59.5,740.5L59,682"/>
<path class="st0" d="M675,939l61.5,0.5C857,940,937,862,936.5,740.5L937,682"/>
<g>
	<path d="M685.13,677.67c50.9-33.3,99.6-44.17,127-48.23c-2.76-19.89-7.27-42.37-14.59-66.54c-13.12-43.3-31.07-78.19-47.26-104.23
		c-103.63,54.92-179.31,94.73-195.32,103.27c-2.6,1.39-9.73,5.2-19.89,7.51c-12.54,2.85-22.54,1.78-25.05,1.56
		c-16.59-1.46-92.66,0.37-218.06,4.88c-3.33,30.24-4.32,70.47,4.33,116.42c4.44,23.59,10.61,44.44,17.13,62.26
		c24.35-9.77,74.67-26.2,139.12-19.83c64.9,6.41,111.26,32.69,133.21,47.11C600.07,757.58,630.43,713.46,685.13,677.67z"/>
	<polyline class="st1" points="528.41,548.12 -0.22,560.94 474.02,335.45 1000.57,304.99 529.55,547.83 	"/>
	
		<rect x="872.24" y="357.34" transform="matrix(0.9688 -0.2478 0.2478 0.9688 -70.2287 230.5927)" class="st1" width="17.61" height="73.95"/>
	<circle class="st1" cx="893.69" cy="441.37" r="15.26"/>
	<circle class="st1" cx="901.25" cy="470.94" r="23.48"/>
	
		<rect x="897.99" y="468.4" transform="matrix(0.9688 -0.2478 0.2478 0.9688 -107.5365 245.46)" class="st1" width="46.95" height="163.17"/>
	
		<ellipse transform="matrix(0.9688 -0.2478 0.2478 0.9688 -126.4899 252.933)" class="st1" cx="941.68" cy="629.02" rx="23.48" ry="7.04"/>
</g>
</svg>
