<svg id="Layer_1" data-name="Layer 1" xmlns="http://www.w3.org/2000/svg" xmlns:xlink="http://www.w3.org/1999/xlink" viewBox="0 0 921.98 990.45"><defs><style>.cls-1,.cls-19,.cls-3{fill:none;}.cls-2{clip-path:url(#clip-path);}.cls-3{stroke:#fff;stroke-width:37.54px;}.cls-19,.cls-3{stroke-miterlimit:10;}.cls-4{fill:#fff;}.cls-5{fill:#8e18c9;}.cls-6{fill:#fff1cc;}.cls-7{fill:#7318a1;}.cls-8{fill:#bdc8c9;}.cls-9{fill:#c59cdb;}.cls-10{fill:#e0bc89;}.cls-11{fill:#f0d7b4;}.cls-12{fill:#f2d1a2;}.cls-13{fill:gray;}.cls-14{fill:#666;}.cls-15{fill:#4d4d4d;}.cls-16{fill:#2b2b2b;}.cls-17{fill:#a553cf;}.cls-18{fill:#e3a635;}.cls-19{stroke:#2b2b2b;stroke-width:4.29px;}</style><clipPath id="clip-path" transform="translate(-0.02 -30.57)"><rect class="cls-1" y="499" width="500.5" height="500.5"/></clipPath></defs><title>iAttend-Home-Design</title><g class="cls-2"><g class="cls-2"><path class="cls-3" d="M160.66,529.78l-30.78-.25c-60.31-.25-100.35,38.79-100.1,99.6l-.25,29.53" transform="translate(-0.02 -30.57)"/><path class="cls-3" d="M337.84,529.78l30.78-.25c60.31-.25,100.35,38.79,100.1,99.6l.25,29.53" transform="translate(-0.02 -30.57)"/><path class="cls-3" d="M160.66,969.22l-30.78.25c-60.31.25-100.35-38.79-100.1-99.6l-.25-29" transform="translate(-0.02 -30.57)"/><path class="cls-3" d="M337.84,969.22l30.78.25c60.31.25,100.35-38.79,100.1-99.6l.25-29" transform="translate(-0.02 -30.57)"/><path class="cls-4" d="M343,838.39a158.9,158.9,0,0,1,63.56-24.14,218.22,218.22,0,0,0-31-85.47c-51.87,27.49-89.75,47.41-97.76,51.68a38.57,38.57,0,0,1-10,3.76,39.17,39.17,0,0,1-12.53.78c-8.31-.73-46.38.19-109.14,2.44A196.56,196.56,0,0,0,157,876.87a147.9,147.9,0,0,1,136.3,13.66A159,159,0,0,1,343,838.39" transform="translate(-0.02 -30.57)"/><polyline class="cls-5" points="264.58 742.98 0 749.4 237.36 636.54 500.9 621.3 265.15 742.84"/><rect class="cls-5" x="436.69" y="678.07" width="8.81" height="37.01" transform="translate(-158.82 100.41) rotate(-14.34)"/><path class="cls-5" d="M454.82,718.23a7.64,7.64,0,1,0-5.51,9.3,7.64,7.64,0,0,0,5.51-9.3" transform="translate(-0.02 -30.57)"/><path class="cls-5" d="M462.59,732a11.75,11.75,0,1,0-8.47,14.3,11.76,11.76,0,0,0,8.47-14.3" transform="translate(-0.02 -30.57)"/><rect class="cls-5" x="449.57" y="733.65" width="23.5" height="81.67" transform="translate(-177.53 107.88) rotate(-14.35)"/><path class="cls-5" d="M482.82,811.13c.48,1.89-4.22,4.72-10.51,6.33s-11.77,1.38-12.26-.5,4.23-4.72,10.52-6.33,11.77-1.38,12.25.5" transform="translate(-0.02 -30.57)"/></g></g><path class="cls-6" d="M560,374V547a16.06,16.06,0,0,0,16,16H784a16.06,16.06,0,0,0,16-16V374" transform="translate(-0.02 -30.57)"/><path class="cls-5" d="M560,339a16,16,0,0,1,16-16H784a16,16,0,0,1,16,16v35.26H560Z" transform="translate(-0.02 -30.57)"/><path class="cls-7" d="M742,323c-.27,0-.1-.09.26-.23a5.2,5.2,0,0,1-2.73-1.35,7.05,7.05,0,0,1-1-1.21l-.22-.35a10.27,10.27,0,0,1-.82-2,6.73,6.73,0,0,1-.27-2.14,5.62,5.62,0,0,1,1.46-3.71c-.1-.18-.2-.36-.29-.54a5,5,0,0,1-.68-2.53l.18-1.33,0-.13a1.84,1.84,0,0,1-.21-1.36,8.3,8.3,0,0,0-1.4.09,1.66,1.66,0,0,1-1.88-.91,3.93,3.93,0,0,0-1.45,3v29.46a4,4,0,0,0,4,3.95h8.92a4,4,0,0,0,4-4L750,323C748.81,323,743,323,742,323Z" transform="translate(-0.02 -30.57)"/><path class="cls-7" d="M634,323c-.86,0-6-1.11-6-2,0-.05,2.31,0,4.57,0a6.26,6.26,0,0,1-1-1.11c-1.9-2.67-1.83-6.61-1.42-9.74a7.35,7.35,0,0,1,.57-2.06,1.59,1.59,0,0,1-.86-1.9,8.17,8.17,0,0,0-1.4.09,1.65,1.65,0,0,1-1.88-.91,3.94,3.94,0,0,0-1.46,3v29.46a4,4,0,0,0,4,3.95H638a4,4,0,0,0,4-4L642,323C640.81,323,635,323,634,323Z" transform="translate(-0.02 -30.57)"/><rect class="cls-8" x="617.6" y="273.65" width="16.87" height="37.56" rx="3.99"/><rect class="cls-8" x="725.82" y="273.65" width="16.87" height="37.56" rx="3.99"/><rect class="cls-8" x="582.27" y="359.59" width="31.83" height="31.51" rx="3.99"/><rect class="cls-8" x="582.27" y="400.97" width="31.83" height="31.51" rx="3.99"/><rect class="cls-9" x="623.64" y="359.59" width="31.83" height="31.51" rx="3.99"/><rect class="cls-8" x="623.64" y="400.97" width="31.83" height="31.51" rx="3.99"/><rect class="cls-8" x="665.02" y="359.59" width="31.83" height="31.51" rx="3.99"/><rect class="cls-8" x="665.02" y="400.97" width="31.83" height="31.51" rx="3.99"/><rect class="cls-8" x="745.87" y="359.59" width="31.83" height="31.51" rx="3.99"/><rect class="cls-8" x="745.87" y="400.97" width="31.83" height="31.51" rx="3.99"/><rect class="cls-9" x="704.49" y="400.97" width="31.83" height="31.51" rx="3.99"/><rect class="cls-8" x="582.27" y="442.35" width="31.83" height="31.51" rx="3.99"/><rect class="cls-8" x="623.64" y="442.35" width="31.83" height="31.51" rx="3.99"/><rect class="cls-8" x="665.02" y="442.35" width="31.83" height="31.51" rx="3.99"/><rect class="cls-9" x="745.87" y="442.35" width="31.83" height="31.51" rx="3.99"/><rect class="cls-8" x="704.49" y="442.35" width="31.83" height="31.51" rx="3.99"/><rect class="cls-9" x="582.27" y="483.73" width="31.83" height="31.51" rx="3.99"/><rect class="cls-8" x="623.64" y="483.73" width="31.83" height="31.51" rx="3.99"/><rect class="cls-9" x="665.02" y="483.73" width="31.83" height="31.51" rx="3.99"/><rect class="cls-8" x="745.87" y="483.73" width="31.83" height="31.51" rx="3.99"/><rect class="cls-8" x="704.49" y="483.73" width="31.83" height="31.51" rx="3.99"/><rect class="cls-8" x="704.49" y="359.59" width="31.83" height="31.51" rx="3.99"/><path class="cls-10" d="M815.91,1017.14c6.56,2.86,33.5,5.45,48.63,2.72,17.73-3.18,25.61-11.9,33.64-21.36,9.68-11.41,17.17-25,20-32.72-13.84-15.65-36.65-20.91-55.91-16.82,0,0-30.19-8.24-40,42.27-.2,1,0,13.69-.46,16.36C820.91,1013.5,812.28,1015.77,815.91,1017.14Z" transform="translate(-0.02 -30.57)"/><circle class="cls-11" cx="851.35" cy="872.03" r="39.09"/><path class="cls-12" d="M781.22,816.64l88.27,51a22.75,22.75,0,0,1,8.33,31.07h0A22.74,22.74,0,0,1,846.75,907l-88.28-51A22.74,22.74,0,0,1,750.15,825h0A22.75,22.75,0,0,1,781.22,816.64Z" transform="translate(-0.02 -30.57)"/><path class="cls-10" d="M787.61,836.43l64.55,37.27a4.77,4.77,0,0,1,1.75,6.52h0a4.77,4.77,0,0,1-6.52,1.74l-64.55-37.27a4.75,4.75,0,0,1-1.75-6.51h0A4.77,4.77,0,0,1,787.61,836.43Z" transform="translate(-0.02 -30.57)"/><circle class="cls-10" cx="826.35" cy="947.02" r="40.91"/><path class="cls-10" d="M638.62,809.36l66.71,38.34a22.84,22.84,0,0,1,8.42,31.17h0a22.82,22.82,0,0,1-31.16,8.41l-66.72-38.34a22.82,22.82,0,0,1-8.41-31.16h0A22.82,22.82,0,0,1,638.62,809.36Z" transform="translate(-0.02 -30.57)"/><path class="cls-10" d="M638.12,859.32l66.41,38.34a22.75,22.75,0,0,1,8.33,31.07h0a22.75,22.75,0,0,1-31.07,8.33l-66.41-38.34a22.75,22.75,0,0,1-8.33-31.07h0A22.75,22.75,0,0,1,638.12,859.32Z" transform="translate(-0.02 -30.57)"/><path class="cls-10" d="M811.93,1015.83,624.74,950.65a22.73,22.73,0,0,1-14-28.93v0h0a22.73,22.73,0,0,1,28.92-14l0,0,187.19,65.18a22.73,22.73,0,0,1,14,28.91l0,.05h0a22.73,22.73,0,0,1-28.92,14Z" transform="translate(-0.02 -30.57)"/><polygon class="cls-10" points="832.53 831.84 832.53 815.74 826.29 812.14 824.47 828.4 832.53 831.84"/><rect class="cls-13" x="632.55" y="618.79" width="193.62" height="341.33" rx="21.36"/><rect class="cls-14" x="684.82" y="637.42" width="89.08" height="9.09" rx="3.07"/><circle class="cls-14" cx="662.73" cy="642.05" r="6.36"/><circle class="cls-15" cx="662.73" cy="642.05" r="3.64"/><rect class="cls-14" x="684.82" y="931.03" width="89.08" height="9.09" rx="3.07"/><rect class="cls-8" x="647.55" y="659.24" width="163.62" height="260.88" rx="9.52"/><path class="cls-12" d="M772.72,838.76l85.1,49.13A22.75,22.75,0,0,1,866.15,919h0a22.75,22.75,0,0,1-31.07,8.33L750,878.16a22.76,22.76,0,0,1-8.33-31.08h0A22.74,22.74,0,0,1,772.72,838.76Z" transform="translate(-0.02 -30.57)"/><ellipse class="cls-12" cx="842.97" cy="936.67" rx="47.95" ry="52.72" transform="translate(-230.64 246.29) rotate(-16.44)"/><path class="cls-12" d="M921.36,952.14A69.75,69.75,0,0,0,906.81,899c-12.27-15.33-29-27.61-35.9-30.46-13.94,37.73-39.69,73.18-53.63,110.9,18.44,16,60.8,16,79.53,6.37C919.08,974.28,919.88,963.42,921.36,952.14Z" transform="translate(-0.02 -30.57)"/><rect class="cls-16" x="680.27" y="709.69" width="5" height="75.9" rx="0.98"/><rect class="cls-16" x="690.72" y="709.69" width="5" height="69.08" rx="0.98"/><rect class="cls-16" x="701.18" y="709.69" width="5" height="69.08" rx="0.98"/><rect class="cls-16" x="711.63" y="709.69" width="5" height="69.08" rx="0.98"/><rect class="cls-16" x="721.63" y="709.69" width="5" height="69.08" rx="0.98"/><rect class="cls-16" x="732.08" y="709.69" width="5" height="69.08" rx="0.98"/><rect class="cls-16" x="742.54" y="709.69" width="5" height="75.9" rx="0.98"/><rect class="cls-16" x="752.99" y="709.69" width="5" height="69.08" rx="0.98"/><rect class="cls-16" x="763.44" y="709.69" width="5" height="68.63" rx="0.98"/><rect class="cls-16" x="773.9" y="709.69" width="5" height="75.9" rx="0.98"/><rect class="cls-16" x="752.99" y="780.59" width="5" height="5" rx="0.98"/><rect class="cls-16" x="763.44" y="780.59" width="5" height="5" rx="0.98"/><rect class="cls-16" x="732.08" y="780.59" width="5" height="5" rx="0.98"/><rect class="cls-16" x="721.63" y="780.59" width="5" height="5" rx="0.98"/><rect class="cls-16" x="711.18" y="780.59" width="5" height="5" rx="0.98"/><rect class="cls-16" x="700.72" y="780.59" width="5" height="5" rx="0.98"/><rect class="cls-16" x="690.27" y="780.59" width="5" height="5" rx="0.98"/><rect class="cls-17" x="658" y="730.6" width="142.71" height="4.09" rx="1.17"/><rect class="cls-18" x="9.98" y="34.29" width="240" height="357.14" rx="18.48"/><rect class="cls-6" x="32.84" y="75.71" width="194.29" height="291.43" rx="12.65"/><circle class="cls-8" cx="129.98" cy="34.29" r="34.29"/><rect class="cls-8" x="95.7" y="34.29" width="68.57" height="30"/><path class="cls-8" d="M61.28,48.57H198.69a9.86,9.86,0,0,1,9.86,9.86V86.84a1.73,1.73,0,0,1-1.73,1.73H53.14a1.73,1.73,0,0,1-1.73-1.73V58.43a9.86,9.86,0,0,1,9.86-9.86Z"/><path class="cls-16" d="M208.08,154.52v4.35a1.48,1.48,0,0,1-1.56,1.39H88.7a1.48,1.48,0,0,1-1.56-1.39v-4.35a1.49,1.49,0,0,1,1.56-1.4H206.52A1.49,1.49,0,0,1,208.08,154.52Z" transform="translate(-0.02 -30.57)"/><path class="cls-16" d="M208.08,187.38v4.35a1.48,1.48,0,0,1-1.56,1.39H88.7a1.48,1.48,0,0,1-1.56-1.39v-4.35A1.48,1.48,0,0,1,88.7,186H206.52A1.48,1.48,0,0,1,208.08,187.38Z" transform="translate(-0.02 -30.57)"/><path class="cls-16" d="M208.08,220.23v4.35a1.49,1.49,0,0,1-1.56,1.4H88.7a1.49,1.49,0,0,1-1.56-1.4v-4.35a1.48,1.48,0,0,1,1.56-1.39H206.52A1.48,1.48,0,0,1,208.08,220.23Z" transform="translate(-0.02 -30.57)"/><path class="cls-16" d="M208.08,253.09v4.35a1.49,1.49,0,0,1-1.56,1.4H88.7a1.49,1.49,0,0,1-1.56-1.4v-4.35a1.49,1.49,0,0,1,1.56-1.4H206.52A1.49,1.49,0,0,1,208.08,253.09Z" transform="translate(-0.02 -30.57)"/><path class="cls-16" d="M208.08,286v4.35a1.48,1.48,0,0,1-1.56,1.39H88.7a1.48,1.48,0,0,1-1.56-1.39V286a1.49,1.49,0,0,1,1.56-1.4H206.52A1.49,1.49,0,0,1,208.08,286Z" transform="translate(-0.02 -30.57)"/><path class="cls-16" d="M208.08,318.8v4.35a1.48,1.48,0,0,1-1.56,1.4H88.7a1.48,1.48,0,0,1-1.56-1.4V318.8a1.48,1.48,0,0,1,1.56-1.39H206.52A1.48,1.48,0,0,1,208.08,318.8Z" transform="translate(-0.02 -30.57)"/><path class="cls-16" d="M208.08,351.66V356a1.49,1.49,0,0,1-1.56,1.4H88.7a1.49,1.49,0,0,1-1.56-1.4v-4.35a1.48,1.48,0,0,1,1.56-1.39H206.52A1.48,1.48,0,0,1,208.08,351.66Z" transform="translate(-0.02 -30.57)"/><rect class="cls-19" x="53.56" y="116.43" width="20" height="20" rx="2.28"/><rect class="cls-19" x="53.56" y="149.29" width="20" height="20" rx="2.28"/><rect class="cls-19" x="53.56" y="182.14" width="20" height="20" rx="2.28"/><rect class="cls-19" x="53.56" y="215" width="20" height="20" rx="2.28"/><rect class="cls-19" x="53.56" y="247.86" width="20" height="20" rx="2.28"/><rect class="cls-19" x="53.56" y="280.71" width="20" height="20" rx="2.28"/><rect class="cls-19" x="53.56" y="313.57" width="20" height="20" rx="2.28"/><rect class="cls-5" x="52.3" y="154.04" width="14.04" height="5.71" rx="1.38" transform="translate(128.3 -26.57) rotate(45)"/><rect class="cls-5" x="56.48" y="149.91" width="25.71" height="5.71" rx="1.38" transform="translate(-87.73 63.2) rotate(-45)"/><rect class="cls-5" x="52.3" y="252.61" width="14.04" height="5.71" rx="1.38" transform="translate(198 2.31) rotate(45)"/><rect class="cls-5" x="56.48" y="248.48" width="25.71" height="5.71" rx="1.38" transform="translate(-157.43 92.07) rotate(-45)"/><rect class="cls-5" x="52.3" y="285.46" width="14.04" height="5.71" rx="1.38" transform="translate(221.23 11.93) rotate(45)"/><rect class="cls-5" x="56.48" y="281.34" width="25.71" height="5.71" rx="1.38" transform="translate(-180.66 101.7) rotate(-45)"/><rect class="cls-5" x="52.3" y="354.04" width="14.04" height="5.71" rx="1.38" transform="translate(269.72 32.01) rotate(45)"/><rect class="cls-5" x="56.48" y="349.91" width="25.71" height="5.71" rx="1.38" transform="translate(-229.15 121.78) rotate(-45)"/><path class="cls-4" d="M489.92,302.18c.78-7.35,3-28.19-1.49-44.79C478.05,219,431.25,201.51,421,198V385.7c3.82,21.33-15.4,45.32-45.17,55.16-31.73,10.48-63.41.9-70.78-21.38s12.39-48.85,44.12-59.34c21-6.92,41.91-5.09,55.83,3.38V130.77a2.77,2.77,0,0,1,2.77-2.77h10.46a2.77,2.77,0,0,1,2.77,2.77V131c1,11,11.43,27.78,24.29,42.79,11.16,13,16.87,14.42,26.77,25.38,23.6,26.1,27.63,58.45,28.27,64.2,4.31,39-13.33,68.47-19.34,77.63A167,167,0,0,0,489.92,302.18Z" transform="translate(-0.02 -30.57)"/></svg>