<svg id="Layer_1" data-name="Layer 1" xmlns="http://www.w3.org/2000/svg" xmlns:xlink="http://www.w3.org/1999/xlink" viewBox="0 0 851.98 800.8"><defs><style>.cls-1,.cls-3{fill:none;}.cls-2{clip-path:url(#clip-path);}.cls-3{stroke:#fff;stroke-miterlimit:10;stroke-width:37.54px;}.cls-4{fill:#fff;}.cls-5{fill:#8e18c9;}.cls-6{fill:#f5f0ec;}.cls-7{fill:#a553cf;}.cls-8{fill:#9051b0;}.cls-9{fill:#bdc8c9;}.cls-10{fill:#c59cdb;}.cls-11{fill:#e6cdaa;}.cls-12{fill:#f0d7b4;}.cls-13{fill:gray;}.cls-14{fill:#666;}.cls-15{fill:#4d4d4d;}.cls-16{fill:#b3b3b3;}.cls-17{fill:#2b2b2b;}</style><clipPath id="clip-path" transform="translate(-35.02 -220.22)"><rect class="cls-1" x="35" y="499" width="500.5" height="500.5"/></clipPath></defs><title>iAttend-Home-Design</title><g class="cls-2"><g class="cls-2"><path class="cls-3" d="M195.66,529.78l-30.78-.25c-60.31-.25-100.35,38.79-100.1,99.6l-.25,29.53" transform="translate(-35.02 -220.22)"/><path class="cls-3" d="M372.84,529.78l30.78-.25c60.31-.25,100.35,38.79,100.1,99.6l.25,29.53" transform="translate(-35.02 -220.22)"/><path class="cls-3" d="M195.66,969.22l-30.78.25c-60.31.25-100.35-38.79-100.1-99.6l-.25-29" transform="translate(-35.02 -220.22)"/><path class="cls-3" d="M372.84,969.22l30.78.25c60.31.25,100.35-38.79,100.1-99.6l.25-29" transform="translate(-35.02 -220.22)"/><path class="cls-4" d="M378,838.39a158.9,158.9,0,0,1,63.56-24.14,218.22,218.22,0,0,0-31-85.47c-51.87,27.49-89.75,47.41-97.76,51.68a38.57,38.57,0,0,1-10,3.76,39.17,39.17,0,0,1-12.53.78c-8.31-.73-46.38.19-109.14,2.44A196.56,196.56,0,0,0,192,876.87a147.9,147.9,0,0,1,136.3,13.66A159,159,0,0,1,378,838.39" transform="translate(-35.02 -220.22)"/><polyline class="cls-5" points="264.58 553.33 0 559.75 237.36 446.89 500.9 431.65 265.15 553.19"/><rect class="cls-5" x="471.69" y="678.07" width="8.81" height="37.01" transform="translate(-192.73 -80.57) rotate(-14.34)"/><path class="cls-5" d="M489.82,718.23a7.64,7.64,0,1,0-5.51,9.3,7.64,7.64,0,0,0,5.51-9.3" transform="translate(-35.02 -220.22)"/><path class="cls-5" d="M497.59,732a11.75,11.75,0,1,0-8.47,14.3,11.76,11.76,0,0,0,8.47-14.3" transform="translate(-35.02 -220.22)"/><rect class="cls-5" x="484.57" y="733.65" width="23.5" height="81.67" transform="translate(-211.44 -73.09) rotate(-14.35)"/><path class="cls-5" d="M517.82,811.13c.48,1.89-4.22,4.72-10.51,6.33s-11.77,1.38-12.26-.5,4.23-4.72,10.52-6.33,11.77-1.38,12.25.5" transform="translate(-35.02 -220.22)"/></g></g><rect class="cls-6" x="9.98" y="18.78" width="240" height="240" rx="16.05"/><path class="cls-7" d="M45,255a16,16,0,0,1,16-16H269a16,16,0,0,1,16,16v35.26H45Z" transform="translate(-35.02 -220.22)"/><path class="cls-8" d="M227.39,239.09a1.92,1.92,0,0,1-1.7-1.84,1.17,1.17,0,0,1,0-.32,1.15,1.15,0,0,1-1-.68c-1.52.16-2.4-2.22-.9-3l.5-.26a1.46,1.46,0,0,1-.51-1.61,6,6,0,0,1,1.47-2.28H225a1.56,1.56,0,0,1-.79-2.9,1.57,1.57,0,0,1,.1-2.12l.14-.11a4,4,0,0,1-2-.08,5.88,5.88,0,0,1-2.67.21,1.55,1.55,0,0,1-1.09-2,8.3,8.3,0,0,0-1.4.09,1.66,1.66,0,0,1-1.88-.91,3.93,3.93,0,0,0-1.45,3v29.46a4,4,0,0,0,4,3.95h8.92a4,4,0,0,0,4-4V239.09C229.69,239.12,228.34,239.09,227.39,239.09Z" transform="translate(-35.02 -220.22)"/><path class="cls-8" d="M119.48,239.09a1.92,1.92,0,0,1-1.7-1.84,1.75,1.75,0,0,1,0-.32,1.17,1.17,0,0,1-1-.68c-1.52.16-2.4-2.22-.9-3l.51-.26a1.45,1.45,0,0,1-.51-1.61,6,6,0,0,1,1.47-2.28h-.26a1.56,1.56,0,0,1-.78-2.9,1.55,1.55,0,0,1,.1-2.12l.14-.11a4,4,0,0,1-2-.08,5.85,5.85,0,0,1-2.66.21,1.55,1.55,0,0,1-1.09-2,8.17,8.17,0,0,0-1.4.09,1.65,1.65,0,0,1-1.88-.91,3.94,3.94,0,0,0-1.46,3v29.46a4,4,0,0,0,4,3.95H119a4,4,0,0,0,4-4V239.09C121.79,239.12,120.44,239.09,119.48,239.09Z" transform="translate(-35.02 -220.22)"/><rect class="cls-9" x="67.6" width="16.87" height="37.56" rx="3.99"/><rect class="cls-9" x="175.82" width="16.87" height="37.56" rx="3.99"/><rect class="cls-9" x="32.27" y="85.94" width="31.83" height="31.51" rx="3.99"/><rect class="cls-9" x="32.27" y="127.32" width="31.83" height="31.51" rx="3.99"/><rect class="cls-10" x="73.64" y="85.94" width="31.83" height="31.51" rx="3.99"/><rect class="cls-9" x="73.64" y="127.32" width="31.83" height="31.51" rx="3.99"/><rect class="cls-9" x="115.02" y="85.94" width="31.83" height="31.51" rx="3.99"/><rect class="cls-9" x="115.02" y="127.32" width="31.83" height="31.51" rx="3.99"/><rect class="cls-9" x="195.87" y="85.94" width="31.83" height="31.51" rx="3.99"/><rect class="cls-9" x="195.87" y="127.32" width="31.83" height="31.51" rx="3.99"/><rect class="cls-10" x="154.49" y="127.32" width="31.83" height="31.51" rx="3.99"/><rect class="cls-9" x="32.27" y="168.7" width="31.83" height="31.51" rx="3.99"/><rect class="cls-9" x="73.64" y="168.7" width="31.83" height="31.51" rx="3.99"/><rect class="cls-9" x="115.02" y="168.7" width="31.83" height="31.51" rx="3.99"/><rect class="cls-10" x="195.87" y="168.7" width="31.83" height="31.51" rx="3.99"/><rect class="cls-9" x="154.49" y="168.7" width="31.83" height="31.51" rx="3.99"/><rect class="cls-10" x="32.27" y="210.08" width="31.83" height="31.51" rx="3.99"/><rect class="cls-9" x="73.64" y="210.08" width="31.83" height="31.51" rx="3.99"/><rect class="cls-10" x="115.02" y="210.08" width="31.83" height="31.51" rx="3.99"/><rect class="cls-9" x="195.87" y="210.08" width="31.83" height="31.51" rx="3.99"/><rect class="cls-9" x="154.49" y="210.08" width="31.83" height="31.51" rx="3.99"/><rect class="cls-9" x="154.49" y="85.94" width="31.83" height="31.51" rx="3.99"/><path class="cls-11" d="M780.91,1017.14c6.56,2.86,33.5,5.45,48.63,2.72,17.73-3.18,25.61-11.9,33.64-21.36,9.68-11.41,17.17-25,20-32.72-13.84-15.65-36.65-20.91-55.91-16.82,0,0-30.19-8.24-40,42.27-.2,1,0,13.69-.46,16.36C785.91,1013.5,777.28,1015.77,780.91,1017.14Z" transform="translate(-35.02 -220.22)"/><circle class="cls-12" cx="781.35" cy="682.38" r="39.09"/><path class="cls-12" d="M746.22,816.64l88.27,51a22.75,22.75,0,0,1,8.33,31.07h0A22.74,22.74,0,0,1,811.75,907l-88.28-51A22.74,22.74,0,0,1,715.15,825h0A22.75,22.75,0,0,1,746.22,816.64Z" transform="translate(-35.02 -220.22)"/><path class="cls-11" d="M752.61,836.43l64.55,37.27a4.77,4.77,0,0,1,1.75,6.52h0a4.77,4.77,0,0,1-6.52,1.74l-64.55-37.27a4.75,4.75,0,0,1-1.75-6.51h0A4.77,4.77,0,0,1,752.61,836.43Z" transform="translate(-35.02 -220.22)"/><circle class="cls-11" cx="756.35" cy="757.38" r="40.91"/><path class="cls-11" d="M603.62,809.36l66.71,38.34a22.84,22.84,0,0,1,8.42,31.17h0a22.82,22.82,0,0,1-31.16,8.41l-66.72-38.34a22.82,22.82,0,0,1-8.41-31.16h0A22.82,22.82,0,0,1,603.62,809.36Z" transform="translate(-35.02 -220.22)"/><path class="cls-11" d="M603.12,859.32l66.41,38.34a22.75,22.75,0,0,1,8.33,31.07h0a22.75,22.75,0,0,1-31.07,8.33l-66.41-38.34a22.75,22.75,0,0,1-8.33-31.07h0A22.75,22.75,0,0,1,603.12,859.32Z" transform="translate(-35.02 -220.22)"/><path class="cls-11" d="M776.93,1015.83,589.74,950.65a22.73,22.73,0,0,1-14-28.93v0h0a22.73,22.73,0,0,1,28.92-14l0,0,187.19,65.18a22.73,22.73,0,0,1,14,28.91l0,.05h0a22.73,22.73,0,0,1-28.92,14Z" transform="translate(-35.02 -220.22)"/><polygon class="cls-11" points="762.53 642.19 762.53 626.09 756.29 622.49 754.47 638.75 762.53 642.19"/><rect class="cls-13" x="562.55" y="429.14" width="193.62" height="341.33" rx="21.36"/><rect class="cls-14" x="614.82" y="447.77" width="89.08" height="9.09" rx="3.07"/><circle class="cls-14" cx="592.73" cy="452.4" r="6.36"/><circle class="cls-15" cx="592.73" cy="452.4" r="3.64"/><rect class="cls-14" x="614.82" y="741.38" width="89.08" height="9.09" rx="3.07"/><rect class="cls-16" x="577.55" y="469.59" width="163.62" height="260.88" rx="9.52"/><path class="cls-12" d="M737.72,838.76l85.1,49.13A22.75,22.75,0,0,1,831.15,919h0a22.75,22.75,0,0,1-31.07,8.33L715,878.16a22.76,22.76,0,0,1-8.33-31.08h0A22.74,22.74,0,0,1,737.72,838.76Z" transform="translate(-35.02 -220.22)"/><ellipse class="cls-12" cx="807.97" cy="936.67" rx="47.95" ry="52.72" transform="translate(-267.07 46.74) rotate(-16.44)"/><path class="cls-12" d="M886.36,952.14A69.75,69.75,0,0,0,871.81,899c-12.27-15.33-29-27.61-35.9-30.46-13.94,37.73-39.69,73.18-53.63,110.9,18.44,16,60.8,16,79.53,6.37C884.08,974.28,884.88,963.42,886.36,952.14Z" transform="translate(-35.02 -220.22)"/><rect class="cls-17" x="610.27" y="520.04" width="5" height="75.9" rx="0.98"/><rect class="cls-17" x="620.72" y="520.04" width="5" height="69.08" rx="0.98"/><rect class="cls-17" x="631.18" y="520.04" width="5" height="69.08" rx="0.98"/><rect class="cls-17" x="641.63" y="520.04" width="5" height="69.08" rx="0.98"/><rect class="cls-17" x="651.63" y="520.04" width="5" height="69.08" rx="0.98"/><rect class="cls-17" x="662.08" y="520.04" width="5" height="69.08" rx="0.98"/><rect class="cls-17" x="672.54" y="520.04" width="5" height="75.9" rx="0.98"/><rect class="cls-17" x="682.99" y="520.04" width="5" height="69.08" rx="0.98"/><rect class="cls-17" x="693.44" y="520.04" width="5" height="68.63" rx="0.98"/><rect class="cls-17" x="703.9" y="520.04" width="5" height="75.9" rx="0.98"/><rect class="cls-17" x="682.99" y="590.94" width="5" height="5" rx="0.98"/><rect class="cls-17" x="693.44" y="590.94" width="5" height="5" rx="0.98"/><rect class="cls-17" x="662.08" y="590.94" width="5" height="5" rx="0.98"/><rect class="cls-17" x="651.63" y="590.94" width="5" height="5" rx="0.98"/><rect class="cls-17" x="641.18" y="590.94" width="5" height="5" rx="0.98"/><rect class="cls-17" x="630.72" y="590.94" width="5" height="5" rx="0.98"/><rect class="cls-17" x="620.27" y="590.94" width="5" height="5" rx="0.98"/><rect class="cls-7" x="588" y="540.95" width="142.71" height="4.09" rx="1.17"/></svg>